PathFileType	4	(X/Y/Z)	C:/Users/beibeiliu/ov580/test_trc/capture2\sequence.38_training_dense_left.trc
DataRate	CameraRate	NumFrames	NumMarkers	Units	OrigDataRate	OrigDataStartFrame	OrigNumFrames
120	120	17	19	mm	120	101	400
Frame#	Time	ThumbCMC			ThumbMCP			ThumbIP			ThumbTip			IndexMCP			IndexPIP			IndexTip			MiddleMCP			MiddlePIP			MiddleTip			RingMCP			RingPIP			RingTip			PinkyMCP			PinkyPIP			PinkyTip			BackHand1			BackHand2			BackHand3	
		X0	Y0	Z0	X1	Y1	Z1	X2	Y2	Z2	X3	Y3	Z3	X4	Y4	Z4	X5	Y5	Z5	X6	Y6	Z6	X7	Y7	Z7	X8	Y8	Z8	X9	Y9	Z9	X10	Y10	Z10	X11	Y11	Z11	X12	Y12	Z12	X13	Y13	Z13	X14	Y14	Z14	X15	Y15	Z15	X16	Y16	Z16	X17	Y17	Z17	X18	Y18	Z18	
100	0.833333	-149.357	33.2905	42.4204	-119.178	41.2503	20.7621	-104.328	44.2872	0.786688	-93.0247	39.8011	-22.042	-168.903	31.9046	-29.9931	-158.527	34.7755	-55.9465	-133.532	33.6585	-77.2763	-167.023	5.96076	-41.8172	-150.321	8.248	-64.6315	-116.382	13.8537	-74.4843	-163.678	-13.8311	-33.8645	-150.08	-13.8415	-59.1442	-123.91	-10.7192	-78.3207	-155.254	-36.1946	-22.0497	-146.883	-37.8807	-44.4343	-134.523	-43.3427	-67.2003	-178.324	-17.613	14.8981	-180.646	-17.1085	47.6111	-181.952	15.6185	31.6771	
101	0.841667	-146.127	35.3277	38.507	-119.28	34.9787	22.1996	-104.548	38.2667	-0.669336	-94.0891	35.2018	-22.7197	-168.079	35.0885	-28.7582	-157.811	38.8417	-53.766	-132.208	33.6515	-76.4227	-167.824	9.7091	-35.9387	-146.73	9.17335	-64.0313	-116.204	8.68123	-69.7492	-166.255	-10.88	-34.4268	-149.491	-14.4125	-61.4205	-126.122	-10.8415	-76.0511	-159.777	-33.6673	-21.8416	-151.681	-34.9404	-43.3061	-138.257	-42.3717	-68.6865	-180.971	-14.1823	17.0068	-180.897	-17.1996	44.094	-182.924	18.8286	30.1056	
102	0.85	-144.316	36.5203	39.5391	-116.471	37.3477	19.1948	-102.549	38.0195	-0.970222	-93.0936	33.3618	-24.1591	-167.881	39.4592	-30.3221	-156.043	41.6912	-54.9951	-134.71	34.8267	-72.7854	-168.754	10.9685	-38.2888	-149.282	15.8893	-62.601	-115.628	11.379	-67.4641	-167.194	-11.4365	-33.3373	-151.876	-10.0266	-60.3798	-126.668	-10.7398	-75.6273	-162.166	-28.9686	-20.5462	-153.808	-32.3948	-46.5163	-142.055	-41.54	-69.4088	-181.235	-12.9995	16.5343	-182.034	-11.5294	44.908	-182.04	17.9738	31.2764	
103	0.858333	-143.149	32.9134	39.7639	-116.821	34.5956	20.9952	-99.8806	38.695	-0.98477	-92.3324	33.3815	-25.7299	-167.607	38.5688	-28.8962	-154.701	41.2823	-55.8445	-130.622	37.0051	-73.1189	-169.037	14.9797	-37.3675	-147.623	14.6083	-62.9669	-117.681	12.6829	-65.5698	-169.088	-5.14056	-34.2943	-154.781	-6.98242	-59.657	-126.619	-7.7169	-75.5618	-165.967	-27.1571	-23.5093	-157.371	-30.0004	-47.7592	-147.361	-37.3175	-72.469	-181.215	-9.7889	16.1884	-182.676	-10.3609	44.7139	-180.275	19.659	32.2656	
104	0.866667	-142.097	33.4235	42.5766	-115.856	33.0364	18.9568	-98.6258	36.9865	-2.35193	-92.2002	31.6957	-29.0274	-166.398	42.5809	-28.0077	-152.683	42.842	-56.0081	-129.015	35.9885	-73.6957	-169.015	16.4496	-37.0363	-148.988	17.493	-61.8507	-112.357	13.1319	-62.1655	-170.812	-3.93475	-37.612	-157.887	-4.46129	-59.0967	-128.998	-4.22261	-75.2386	-167.701	-24.3245	-20.8093	-161.102	-27.9977	-46.7619	-152.831	-37.1889	-70.679	-184.838	-8.28942	16.1463	-186.115	-12.0608	49.0738	-177.992	24.3851	35.8238	
105	0.875	-141.705	33.8703	39.4398	-114.04	32.6429	20.8127	-101.445	33.2443	-4.11468	-93.3292	30.2439	-23.0403	-164.166	47.0318	-26.1794	-154.6	45.3657	-52.413	-128.708	41.3436	-73.2445	-168.145	24.8209	-35.8156	-149.191	21.7709	-60.432	-113.352	15.8674	-61.2768	-171.947	0.222874	-31.8791	-156.459	0.348862	-61.6408	-128.25	-2.29876	-76.8624	-169.96	-24.784	-23.7221	-164.559	-28.0019	-46.865	-156.267	-29.9814	-70.0687	-183.855	-1.3671	17.9034	-185.573	-6.39544	48.6972	-178.06	23.2307	31.836	
106	0.883333	-137.435	37.3514	42.2563	-110.037	34.0223	23.1423	-98.3842	33.5552	-4.1514	-93.4886	26.8724	-29.7493	-162.98	49.1994	-28.5566	-151.683	50.1211	-53.6508	-129.299	42.0778	-71.1837	-167.479	25.9418	-39.0967	-146.786	23.4644	-59.5437	-111.56	12.4904	-58.739	-172.408	4.24177	-32.7802	-158.597	-0.000424337	-59.6665	-132.529	-2.42446	-74.6527	-171.786	-18.638	-27.7796	-166.578	-27.6552	-48.3221	-156.897	-31.9592	-75.2812	-184.021	-1.84903	15.5151	-185.138	-5.73292	49.0471	-176.264	29.0306	36.2616	
107	0.891667	-137.338	34.0634	43.0354	-110.834	31.7945	17.6388	-98.4418	31.5967	-2.72692	-92.7164	26.8086	-28.8726	-161.779	51.8429	-24.1852	-150.69	51.1255	-52.5141	-128.006	40.7261	-70.0518	-165.57	28.2208	-38.8959	-142.39	25.6276	-59.7192	-113.511	13.9363	-57.7115	-172.603	5.95592	-35.5051	-160.344	1.43216	-60.741	-132.045	2.95434	-75.3564	-174.251	-16.4729	-27.1323	-167.562	-21.3298	-48.0899	-159.39	-25.5052	-73.661	-185.926	-0.266925	15.6698	-185.585	-3.8912	47.9409	-177.939	30.8754	35.0862	
108	0.9	-136.883	34.7137	42.5935	-112.715	29.259	18.0718	-97.2948	31.436	-4.06888	-93.0655	25.0836	-26.5251	-160.89	53.1539	-25.0571	-149.419	52.7993	-52.7761	-123.985	45.0452	-70.479	-164.374	32.498	-39.0283	-139.709	25.9782	-59.7009	-108.827	15.5441	-54.8043	-172.918	8.27207	-39.162	-160.122	4.40261	-61.4444	-130.939	3.11654	-75.0096	-175.042	-15.5752	-28.0901	-169.159	-21.7461	-52.3115	-163.598	-22.5503	-73.5575	-186.174	4.59901	15.7687	-187.439	-0.453379	45.0911	-175.673	30.2498	33.1715	
109	0.908333	-137.512	34.9564	39.2239	-109.617	32.3377	18.604	-99.3355	29.4766	-5.20308	-96.1766	24.0604	-31.434	-160.714	51.6608	-27.6584	-149.933	53.6572	-50.7585	-127.868	45.848	-68.3084	-165.118	31.5043	-34.7359	-140.867	27.2007	-59.7605	-112.248	13.0239	-55.2719	-173.437	10.688	-37.1417	-156.759	7.39449	-62.8482	-133.664	2.56531	-74.8346	-177.262	-15.1966	-29.0823	-170.384	-16.1439	-52.3238	-164.606	-23.908	-75.7623	-186.304	3.48244	18.3285	-188.501	0.580747	47.468	-176.897	32.4315	36.8011	
110	0.916667	-136.351	35.852	43.827	-110.029	32.1154	15.7603	-101.163	29.5649	-7.94826	-101.869	22.597	-31.1553	-161.151	53.203	-25.716	-148.189	51.6249	-53.2946	-128.175	45.4435	-68.4657	-164.042	33.2605	-37.4705	-141.159	25.8134	-59.283	-106.837	13.9302	-52.5321	-173.53	13.0657	-36.0582	-159.161	8.86332	-61.2079	-132.878	3.05364	-75.5533	-176.832	-11.2912	-27.6034	-171.122	-15.549	-50.5802	-163.644	-19.6549	-73.6413	-186.999	3.52048	17.9637	-188.627	-0.904616	47.3429	-177.089	34.1097	37.0471	
111	0.925	-137.351	35.5189	42.6174	-112.597	29.7354	21.6052	-101.48	30.0497	-4.31021	-98.4608	24.432	-29.0234	-160.571	54.4196	-25.0712	-149.815	53.5326	-51.6269	-124.46	42.639	-67.6928	-164.078	35.5011	-37.2427	-142.886	26.3594	-57.7255	-108.792	12.5124	-52.1342	-173.633	11.2408	-36.3104	-159.916	7.74034	-61.5324	-133.348	3.90713	-74.6526	-178.352	-13.2927	-24.2085	-174.014	-16.9008	-48.7881	-164.91	-21.0954	-77.7672	-186.354	7.89764	13.7497	-187.826	2.00022	46.783	-177.348	30.8305	37.3637	
112	0.933333	-135.49	36.952	45.1899	-111.279	30.6527	19.0171	-101.719	29.4264	-5.02255	-98.342	23.2853	-30.7133	-159.712	55.8107	-23.6885	-145.611	57.013	-52.4479	-121.282	42.9265	-67.7243	-165.615	31.5647	-34.6712	-142.359	30.989	-56.9466	-110.867	16.2097	-53.0032	-173.174	13.4636	-37.5024	-159.572	10.0177	-60.95	-133.022	6.75426	-74.0835	-177.846	-10.0202	-28.7417	-172.838	-12.441	-47.9853	-163.257	-17.0483	-75.8865	-186.919	6.13636	17.7136	-187.715	3.23121	44.6253	-177.673	34.0021	35.5768	
113	0.941667	-134.083	37.6823	42.3418	-111.524	30.4325	21.7806	-99.1539	29.74	-4.7515	-98.3867	23.3205	-31.3369	-158.452	55.2321	-22.6533	-144.874	54.8414	-53.0844	-121.057	42.8991	-67.2285	-162.914	32.5859	-39.0132	-140.728	31.2111	-56.4874	-106.497	12.1275	-48.7841	-172.395	16.084	-37.8178	-157.978	12.8893	-59.6139	-129.673	5.43191	-75.819	-177.882	-9.69535	-25.4723	-173.186	-14.5918	-52.1507	-164.389	-18.6904	-77.376	-185.912	12.0382	15.8671	-189.515	1.24444	45.8932	-175.28	34.8964	38.7408	
114	0.95	-135.963	34.2059	46.1987	-111.46	29.4531	17.6513	-100.468	29.1063	-7.09979	-100.007	21.7054	-28.2115	-158.269	56.7563	-22.6454	-144.226	55.4356	-51.2228	-125.451	40.9702	-65.7694	-161.104	37.7616	-34.0782	-136.391	27.848	-56.4424	-109.294	16.6518	-52.045	-173.287	15.5313	-38.5069	-159.021	13.3965	-58.7057	-133.062	7.96959	-74.129	-177.625	-6.16815	-23.2313	-173.69	-9.23522	-48.7325	-166.975	-17.1328	-74.1678	-185.624	8.88539	19.6975	-188.802	1.95379	43.0772	-176.784	33.4826	38.7813	
115	0.958333	-135.052	33.859	43.5426	-111.589	27.8492	22.9865	-97.0809	29.2995	-5.48283	-97.877	23.5626	-28.1182	-156.027	58.0806	-20.7195	-142.218	57.0773	-51.1732	-122.998	45.6472	-64.8181	-162.195	36.0858	-35.3656	-137.853	26.9004	-57.2894	-110.498	16.1043	-53.7249	-172.289	19.7199	-32.5415	-156.126	15.6827	-62.255	-132.036	9.54332	-74.0595	-180.2	-4.99299	-27.0836	-175.371	-10.7797	-49.0072	-167.373	-10.9727	-75.7023	-185.97	11.2125	17.265	-188.268	6.32731	45.5457	-171.755	38.5243	38.6157	
116	0.966667	-132.44	33.1021	47.1271	-108.115	27.794	19.1782	-94.9409	27.5743	-1.17893	-96.8964	21.8332	-28.0666	-152.509	57.3001	-19.8639	-142.691	56.7251	-47.6263	-119.835	43.7651	-64.7161	-162.608	38.7194	-32.5927	-140	33.822	-57.8475	-112.968	13.3375	-59.194	-173.83	20.5115	-32.4416	-158.734	18.577	-60.8743	-136.777	8.51536	-76.4218	-180.147	-0.117804	-26.6735	-178.652	-7.30445	-48.0154	-172.865	-10.612	-74.607	-186.02	18.4756	18.7968	-190.821	7.23181	45.892	-171.406	39.5754	41.7186	
